<svg id="Layer_1" data-name="Layer 1" xmlns="http://www.w3.org/2000/svg" viewBox="0 0 128 32"><defs><style>.cls-1,.cls-2,.cls-3{fill:#fff;}.cls-2{font-size:15.56px;}.cls-2,.cls-3{font-family:ComicSansMS-Bold, Comic Sans MS;font-weight:700;}.cls-3{font-size:10.13px;}</style></defs><rect width="128" height="32"/><path class="cls-1" d="M14.55,31.62A13.63,13.63,0,0,1,5,27.81a12.88,12.88,0,0,1-2-16A5,5,0,0,0,3.38,11a3.63,3.63,0,0,1,.69-1.28,5.37,5.37,0,0,1,1.42-1,7.88,7.88,0,0,0,.88-.51A13.58,13.58,0,0,1,8.56,6.93,7.31,7.31,0,0,0,8.63,4.7c-.08-1.66-.16-3.37.5-4A.61.61,0,0,1,9.55.52c.52,0,1.24.66,2.16,2a10.81,10.81,0,0,1,1.37,2.41,1.48,1.48,0,0,0,.64.71h0l.24,0,.54,0a9,9,0,0,1,2.17.36,7.74,7.74,0,0,0,1.9.33h.18A1.61,1.61,0,0,0,19.32,6a18.05,18.05,0,0,0,1.86-1.87c1.54-1.67,2.52-2.68,3.16-2.68a.55.55,0,0,1,.46.23,2.87,2.87,0,0,1,.55,1.44,1.83,1.83,0,0,0,0,.21,11.44,11.44,0,0,1-.5,5.48,3.54,3.54,0,0,0,.42,1.4A14.48,14.48,0,0,1,28,18.6a12.74,12.74,0,0,1-3.94,9.22A13.68,13.68,0,0,1,14.55,31.62Zm-5-30.54h0c-.48.47-.4,2.26-.33,3.58.08,1.66.1,2.54-.39,2.76A13.06,13.06,0,0,0,6.69,8.66a8.58,8.58,0,0,1-.94.55,5,5,0,0,0-1.27.84,3.16,3.16,0,0,0-.58,1.09,4.92,4.92,0,0,1-.42.94,12.33,12.33,0,0,0-1.82,6.51A12.7,12.7,0,0,0,14.55,31.06,12.69,12.69,0,0,0,27.43,18.59a13.84,13.84,0,0,0-2.59-8,4.52,4.52,0,0,1-.54-1.74V8.75l0-.06a11,11,0,0,0,.49-5.29l0-.22A2.22,2.22,0,0,0,24.34,2c-.45,0-1.83,1.5-2.75,2.5a19.4,19.4,0,0,1-1.94,1.94,1.94,1.94,0,0,1-.82.36h-.21a8.29,8.29,0,0,1-2-.34,8.31,8.31,0,0,0-2-.35c-.19,0-.37,0-.51,0h-.27a.62.62,0,0,1-.21,0,1.94,1.94,0,0,1-1-1.13,10.51,10.51,0,0,0-1.28-2.21C10.29,1.44,9.73,1.08,9.55,1.08ZM6.86,20.23c.17-.06.83-.06-.08-1,1.23,1.36,3.78-1.64.42-2.6-.91-.25-3.42-.16-3.06,1.47.07.16.84.88.87.81-1-.15-.34,1.32.69,1.45A4.58,4.58,0,0,0,6.86,20.23Zm0,1.9c-1.8-1.27-3.61.4-1.75,1.09a9.07,9.07,0,0,0,2.69.45c.8.12,5.42.37,5.5-1.07-.19,0,0,.38,0,0a35.4,35.4,0,0,0-3.51.55c-.46.09-.94-.39-1.52-.58ZM15,12.82c1.26-.08,2.31,1.52,2.31,1.52S16.29,16,15.14,16s-1.09-.44-1.9-.63S13.78,12.89,15,12.82Zm-.35.8c.17-.22.64.66.7.07,0-.21,0-.3-.82-.29s-1.12,1.69-.63,2,.65.58.53.11A3.34,3.34,0,0,1,14.68,13.62ZM7,11.42a1.14,1.14,0,0,1,1.28,1c0,.35-.59,1.71-1.21,1.71a1.4,1.4,0,0,1-1.15-1C5.81,12.36,6.47,11.42,7,11.42Zm-.13.42c.17-.25-.69.18-.63,1s.87,1.15.69.91c-.65-.89-.17-2-.35-1.71.18.14.55-.15.13-.22C6.67,11.79,6.83,11.87,6.85,11.84Zm1,.22a.18.18,0,0,0-.18.19.18.18,0,0,0,.18.18A.18.18,0,0,0,8,12.25.18.18,0,0,0,7.86,12.06Z"/><path class="cls-1" d="M113,31.26a13.59,13.59,0,0,1-9.5-3.81,12.71,12.71,0,0,1-3.95-9.22,12.85,12.85,0,0,1,1.91-6.8,4.29,4.29,0,0,0,.38-.84,3.6,3.6,0,0,1,.68-1.28,5.6,5.6,0,0,1,1.43-1,8.9,8.9,0,0,0,.88-.51A13.07,13.07,0,0,1,107,6.57a7,7,0,0,0,.07-2.23c-.07-1.66-.15-3.36.51-4A.59.59,0,0,1,108,.16c.51,0,1.24.66,2.16,2a10.66,10.66,0,0,1,1.36,2.41,1.45,1.45,0,0,0,.65.71h0l.23,0,.55,0a9,9,0,0,1,2.16.36,7.74,7.74,0,0,0,1.91.33h.18a1.58,1.58,0,0,0,.51-.25,19,19,0,0,0,1.87-1.87c1.53-1.67,2.51-2.68,3.16-2.68a.52.52,0,0,1,.45.23,2.87,2.87,0,0,1,.55,1.44q0,.09,0,.21a11.58,11.58,0,0,1-.5,5.48,3.7,3.7,0,0,0,.41,1.4,14.5,14.5,0,0,1,2.71,8.38,12.74,12.74,0,0,1-3.94,9.22A13.66,13.66,0,0,1,113,31.26ZM108,.72h0c-.49.47-.4,2.26-.34,3.58.08,1.66.1,2.54-.38,2.76a12.94,12.94,0,0,0-2.11,1.23,7.88,7.88,0,0,1-1,.55,5,5,0,0,0-1.27.84,3.14,3.14,0,0,0-.57,1.09,5.35,5.35,0,0,1-.43,1,12.32,12.32,0,0,0-1.82,6.5,12.9,12.9,0,0,0,25.78,0,13.91,13.91,0,0,0-2.59-8,4.19,4.19,0,0,1-.54-1.74V8.39l0-.06a10.93,10.93,0,0,0,.5-5.29l0-.22a2.23,2.23,0,0,0-.45-1.17c-.45,0-1.83,1.5-2.74,2.5a18.3,18.3,0,0,1-2,1.94,2,2,0,0,1-.81.36h-.21a8.37,8.37,0,0,1-2-.34,8.23,8.23,0,0,0-2-.35c-.19,0-.36,0-.5,0h-.28a.56.56,0,0,1-.2,0,1.91,1.91,0,0,1-1-1.13,11.57,11.57,0,0,0-1.28-2.21C108.74,1.08,108.18.72,108,.72Zm-2.7,19.15c.18-.06.83-.06-.07-1,1.23,1.36,3.77-1.64.41-2.6-.9-.25-3.42-.16-3.06,1.47a3.48,3.48,0,0,0,.87.81c-1-.15-.33,1.32.69,1.45A4.53,4.53,0,0,0,105.3,19.87Zm.06,1.9c-1.8-1.27-3.62.4-1.75,1.09a9,9,0,0,0,2.68.45c.8.12,5.43.37,5.51-1.07-.19,0,0,.38,0,0a32.36,32.36,0,0,0-3.52.56c-.46.08-.94-.4-1.51-.59Zm8.12-9.31c1.25-.07,2.3,1.52,2.3,1.52s-1,1.69-2.19,1.65-1.1-.44-1.9-.63S112.23,12.53,113.48,12.46Zm-.36.8c.18-.22.64.66.71.07,0-.21,0-.3-.82-.29s-1.12,1.69-.64,2,.66.58.54.11A3.34,3.34,0,0,1,113.12,13.26Zm-7.7-2.2a1.15,1.15,0,0,1,1.29,1c0,.35-.6,1.71-1.22,1.71a1.39,1.39,0,0,1-1.14-1C104.26,12,104.92,11.06,105.42,11.06Zm-.13.42c.18-.25-.68.18-.62,1s.86,1.14.68.9c-.65-.89-.17-2-.34-1.7.17.13.54-.16.13-.23C105.11,11.43,105.28,11.51,105.29,11.48Zm1,.22a.19.19,0,0,0-.17.19.18.18,0,0,0,.17.18.17.17,0,0,0,.17-.18A.18.18,0,0,0,106.3,11.7Z"/><text class="cls-2" transform="translate(29.54 13.74)">wow</text><text class="cls-3" transform="translate(39.41 23.41)">much amaze</text></svg>