<svg id="Layer_1" data-name="Layer 1" xmlns="http://www.w3.org/2000/svg" viewBox="0 0 438.62 294.34"><path d="M-130.77-22.11l11.94,3,1.33-2a65.75,65.75,0,0,1-5.66-4.54q-7.92-7.82-15.57-15.9a9.75,9.75,0,0,1-1.64-3.57c-2.24-6.51-4.6-13-6.59-19.56s-3-13-.25-19.55c.56-1.33.45-2.94,1-4.31,1.47-4,2.4-8.41,4.83-11.73,4.51-6.15,10-11.54,14.92-17.45,4.21-5.11,9.66-7.43,16-8.16,1.32-.16,2.77,0,4-.48,9.63-4,19.48-2.42,29.37-1.59,12,1,17.92,6.41,19.84,18.09,1.07,6.54,1.12,14.24,4.72,19.15,6.86,9.33.57,19,3.12,28.25.69,2.48-1.58,5.78-2.46,8.63.33.24,1.49.69,1.83,1.49s-.56,2.54-.6,2.53c-3.72-.85-2.57,2.4-3.48,4-2.65,4.51-5.49,8.9-8.17,13.38-.88,1.48-2.06,3.15-2,4.68,0,.78,2.53,2,4,2,3.87.19,3.91,2.18,3,5C-59.56-13.78-61.76-6.85-63.74.14-65.85,7.58-71.5,11.26-77.87,14.6A24.78,24.78,0,0,1-112.14,1.77a13.06,13.06,0,0,0-6.75-6.6C-127.88-8.32-128.67-10.12-130.77-22.11Zm53,11.77.85,2.14C-81-6.54-85-4.12-89.2-3.43s-8.87-.31-13.53-.57c6.36,8.51,20.6,10.08,25.88,2C-73.32-7.43-69.94-12.6-65-16.76c.14-.12,0-.6-.09-1.29-15.7.61-31.32,1.37-45.92,7.76l.2,1.51ZM-89.42-65.16h20.3l.4.93-8.42,4.61.47,1.24c3.06-.9,6.66-1.08,9-2.87A64.47,64.47,0,0,0-56.94-72c2.14-2.61.23-6.59-3.24-7.09-2.74-.4-5.78.56-8.35-.19-7.32-2.14-12.85.9-18.34,5C-90.09-71.85-91.62-69.26-89.42-65.16Zm-.71,43.71c3.53-3.11,6.82-5.28,9-8.25,1.18-1.58.49-4.54.64-6.88-2.59.36-5.19.66-7.77,1.1-2.43.42-4.82,1.23-7.26,1.41-1.76.13-3.66-1-5.33-.63-.93.18-2.28,3-2.15,3.14C-99.11-28.32-95.09-25.27-90.13-21.45Zm-13.3-42.08c-.65-6.65-5-8.37-9.53-9.69-3.66-1.07-7.52-1.82-12,2,3.68.65,6.09,1,8.43,1.52,2.18.53,4.3,1.33,6.44,2-20,5.56-20,5.56-20.93,10.4Zm-26.82-5.64-2-1.78c-1.67,1.36-3.9,2.45-4.77,4.2-.41.82,1.81,3,2.83,4.48Z" transform="translate(148.88 128.97)"/><path d="M-117,165.19c-5.59.87-6.68-1.47-6.49-5.91.93-21.6,1.92-43.21,2.26-64.83.22-14.47-.32-29-1.1-43.42-.24-4.49-2.23-8.94-3.7-13.32s-2.7-9.3-5.24-13.19-6-7.07-4.85-12.32c.06-.3-.55-.79-.91-1.13a6.23,6.23,0,0,0-1.22-.63l-1.94,5.12-1.48-.44c1.6-6,3.21-12.09,5.12-19.29,10.44,14.25,13.15,31.31,25.77,43.45,1.61-5.52,5.3-6.14,9.42-6.92,8-1.5,15.77-3.78,23.68-5.58,2.14-.48,5.13-1.34,6.49-.34,3.15,2.32,5,5.91,3.15,10.1C-71.37,44-74.72,51.4-78.3,58.71c-16,32.66-28.93,66.45-37.37,101.88C-116,162.18-116.57,163.73-117,165.19Z" transform="translate(148.88 128.97)"/><path d="M49,24.31H36V-9.29c0-2.34.33-4.74-.14-7-.31-1.44-1.8-2.63-2.76-3.94C32-18.9,29.9-17.62,29.86-16.28c-.31,9-.19,18-.21,27,0,4.38,0,8.76,0,13.54H16.87c-.09-1.88-.24-3.65-.24-5.42q0-28.24,0-56.49c0-7-.25-7.26-7.32-7.27H1.72c-.13,2.16-.34,4.07-.35,6,0,16.83-.17,33.66.11,50.49.07,4.21,1.53,8.4,2.38,12.75h-19.5c.86-4,2.41-8,2.47-12,.28-17.33.12-34.66.12-52v-6.67c-4.29,2.75-7.43,4.78-10.6,6.82V-57.31H56.67c-4.73,3.72-8.19,7.34-12.4,9.5S35.15-45,30-43.52v15.11a54.54,54.54,0,0,1,7-2.41c6.76-1.37,11.06,2.14,11.1,9.05.08,12,0,24,.07,36C48.22,17.6,48.74,21,49,24.31Z" transform="translate(148.88 128.97)"/><path d="M153,19.07,173.7-.48c-2.91-2-5.28-4.15-8.06-5.34-3.24-1.37-6-2.67-6.85-6.5-.17-.77-2-1.5-3.1-1.69-7.21-1.22-14.44-2.28-22.78-3.56,3.25-3.95,6-7.54,9.09-10.91.58-.65,2.15-.63,3.24-.56a41.18,41.18,0,0,1,6.93.88c4.51,1.07,7.2.47,8.61-4.92.82-3.12,4.34-5.63,6.89-8.18,4.09-4.1,8.64-7.78,12.52-12.07a18.86,18.86,0,0,0,4.29-19c-1-3.3-1.24-6.81-1.87-10.49,3.07-1,5.14-1.3,5.29,2.66a51,51,0,0,0,.95,9.42c1.91,8.36-1,14.84-6.93,20.54C178.57-47,176-42.9,172.43-40c-8.49,7-8.18,17-9.48,26.42-.18,1.31,1.3,2.84,2.66,5.58,2.74-8.49,5-15.39,7.19-22.3l1.55.45-5,21.75,1.29.53L184.72-28l1.71,1.15c-3.28,5.61-6.68,11.16-9.77,16.87-.93,1.71-1,3.88-1.49,5.84l2.22,1.23,19.66-20.42c-.77,5.37-1.25,11.2-2.52,16.86-1.64,7.33,3.49,11,7.61,15.13.75.75,3.47.59,4.52-.18C211.51,4.9,216.09,1,220.77-2.83l-.69-1.77-9.69-2c0-2.59-.1-5,0-7.47.3-6.08,2.32-7.73,8.55-6.79,6,.91,12.08,2,18.63,3.13.82-10.81-.22-20.92-7.28-28.66-9.32-10.23-8.6-22.21-7.92-34.34.06-1.19,3.38-2.2,5.73-3.62.63,10.8,1.16,20,1.7,29.15l1.29,1.13c7-9.84,13.25-2.09,20.54.35-2.28,1.93-4.42,4.06-6.87,5.75-5.69,3.93-6.87,9.15-5.27,15.55,1.2,4.82.55,11.08,3.42,14.23,2.62,2.87,8.88,2.46,13.55,3.4,3.74.76,7.51,1.37,12.4,2.25-3,4.67-5.5,9-8.46,13.07-.56.77-2.94.9-4.12.43-11.25-4.49-20.07-.27-28.13,7.35a59.35,59.35,0,0,1-6,4.48c-6,4.37-6.09,4.37-11-1-3.81,1.58-7.62,2.83-11.31-.86-2.8-2.81-6.11-5.12-9.48-7.89-5.68,5.26-11.49,10.23-16.8,15.68-3.1,3.18-6.15,4-10.24,2.7C160.26,20.42,157,19.94,153,19.07Zm82-21c-12.54-3.39-14.68-2.46-17.13,6.17l10.21,1.13ZM216,12.42l1.59.85,5.82-4.5-.55-1.69c-1.91.22-4.13-.08-5.61.83C216.27,8.51,216.37,10.86,216,12.42Z" transform="translate(148.88 128.97)"/><path d="M-20.84,107.93c.76-4.56,2-8.79,2.08-13,.22-17.83.18-35.66,0-53.49,0-3.68-1-7.35-1.57-11.14,7.22,0,15.17-.35,23.08.12,5.67.33,8.23,3,8.3,8.7.24,20.15.17,40.31,0,60.47,0,4.8-2.87,8.07-7.68,8.27C-5,108.18-13.41,107.93-20.84,107.93ZM-4.65,96.11l1.17.33C-3,95.12-2,93.81-2,92.49q.17-22,0-44c0-1.34-1.09-2.68-1.68-4l-1,.51Z" transform="translate(148.88 128.97)"/><path d="M78.9,55.42c0,6,0,10.76,0,15.56,0,14.83,0,29.65,0,44.48,0,8.78-2.65,11.56-11.41,12.36-.83.07-1.66.13-2.49.16-13,.39-16.58-4-13.88-18.22l13.53,9.14c.15-2.84.34-6.43.55-10.59-2.4,0-4.32,0-6.24,0-5.84-.15-9.12-2.4-9.35-8.17a343.2,343.2,0,0,1,0-35.43c.55-8.61,6.8-11.54,14.69-8.17a5.47,5.47,0,0,0,2.56.63C71,56.65,75.05,56,78.9,55.42ZM66.26,82.94c0-3.82.14-7.65-.09-11.46-.06-1-1.23-2-1.89-2.93-.7,1-2,1.93-2,2.92q-.26,11.2,0,22.42c0,1,1.29,1.9,2,2.85.67-.94,1.87-1.86,1.93-2.85C66.41,90.25,66.27,86.59,66.26,82.94Z" transform="translate(148.88 128.97)"/><path d="M189,41.9c.6-2.29,1.59-4.39,1.63-6.51.17-9.45.07-18.9.07-28.35L192,7V38l10.47-7.68V57.08l14.88-2.24V18.49l1.54-.11c.11,1.44.31,2.89.33,4.34q.5,39.45,1,78.9a47,47,0,0,0,.91,6.08H208.78c0-11.68.08-23.13-.06-34.58,0-2.88,1.4-7.59-3.2-7.55s-2.58,4.64-2.64,7.26c-.22,9.49-.14,19,0,28.49a51.27,51.27,0,0,0,.86,6.46H190.48c-.09-1.79-.25-3.54-.25-5.28,0-17.67,0-35.33-.06-53A50.32,50.32,0,0,0,189,41.9Z" transform="translate(148.88 128.97)"/><path d="M84.88,10.62c1.46,10.2-1.58,13.8-12.67,13.91-4,0-8,0-12,0-4.46,0-7-2.25-7-6.67q-.15-20.76,0-41.5c0-4.41,2.64-6.64,7.05-6.65,6.17,0,12.33,0,18.5,0,3.92,0,5.85,2.09,6,5.84.13,4,.46,8.06-.13,12A13.16,13.16,0,0,1,81-5.68C77.77-2.38,73.71.15,70.48,3.48c-1.64,1.69-2.21,4.43-3.26,6.7,2.17.9,4.37,2.57,6.52,2.52C77.32,12.62,80.88,11.43,84.88,10.62ZM66.47-9.65l2.22.59a95.41,95.41,0,0,0,2.73-9.23C71.56-19,70-20,69.15-20.92c-.89.83-2.45,1.59-2.56,2.51A77.5,77.5,0,0,0,66.47-9.65Z" transform="translate(148.88 128.97)"/><path d="M16,82c0-5.16-.13-10.33,0-15.48.2-6.76,3.19-10.06,9.77-11.16.82-.13,1.65-.19,2.48-.25,14.17-1,17.6,2.19,17.63,16.4,0,8.16.09,16.32,0,24.48-.14,9.16-2.79,11.86-11.8,12.33a63.48,63.48,0,0,1-6.47-.06C18.36,107.82,16,105.35,16,96,16,91.33,16,86.66,16,82Zm17.12.23h0c0-3.32.16-6.64-.09-9.94-.07-1.05-1.2-2-1.84-3-.9,1-2.54,1.93-2.58,3q-.39,9.93-.08,19.88c0,1,1.67,1.93,2.56,2.9.69-1.1,1.87-2.16,2-3.31C33.28,88.54,33.1,85.38,33.1,82.23Z" transform="translate(148.88 128.97)"/><path d="M255,95.12C256,104.8,253.21,108,242.45,108c-3.66,0-7.33,0-11,0-4.25,0-6.46-2.19-6.46-6.5q0-19.5,0-39c0-4.35,2.56-6.33,6.6-6.55,3-.16,6,0,9.75,0V3.63l1.54,0V55a9.19,9.19,0,0,0,2,.82c9.65.62,9.54,1,10.15,10.58.48,7.53-2,12.81-8.19,16.84a35,35,0,0,0-7.15,6.2c-1,1.18-1.8,3.58-1.28,4.86s2.83,2.5,4.3,2.45C246.68,96.58,250.59,95.74,255,95.12ZM237.27,75.5l2.15.65A72.3,72.3,0,0,0,242.2,68c.18-.8-1.24-2-1.92-3-1,.9-2.7,1.68-2.87,2.72A47.77,47.77,0,0,0,237.27,75.5Z" transform="translate(148.88 128.97)"/><path d="M165.51,108.11c-5-1-11,2.61-14-5-2.73,6.11-7.89,5.07-12.61,4.63-3.32-.31-4.69-2.85-4.72-6.05,0-4.66-.45-9.37.1-14a13.36,13.36,0,0,1,3.55-7.14c3.24-3.31,7.26-5.85,10.64-9,1.38-1.3,1.95-3.47,2.9-5.24-1.64-.42-3.34-1.33-4.91-1.14a96.77,96.77,0,0,0-10,2.24c2-4.2,2.35-10.08,7.77-11.42,4.69-1.15,9.88-.24,15.53-.24V23.49l1.21-.12a15.76,15.76,0,0,1,.72,2.9c.12,2,0,4,.06,6,.78,22.83,1.54,45.66,2.41,68.49C164.24,103,165,105.29,165.51,108.11Zm-14-25.61c-4,2.78-6.27,10.67-4.39,13.6a2.85,2.85,0,0,0,2.41,1.12A3.19,3.19,0,0,0,151.43,95C151.63,91.1,151.52,87.17,151.52,82.5Z" transform="translate(148.88 128.97)"/><path d="M136.63-13.77v43l1.72-.77c1.85,2.47,4.62,4.68,5.39,7.44,2.12,7.67-4.94,9.73-10.15,14.72,0-3.63.26-6-.11-8.36-.18-1.15-1.5-2.12-2.31-3.18-.67,1-1.86,2-1.91,3-.22,4.29-.09,8.6-.09,13.38l9,.65c-2.2,4.11-1.54,9.91-8.58,9.75V107.7h-13V41.61c0-10.66,1-11.59,11.74-11.6h6.64v-43.8Z" transform="translate(148.88 128.97)"/><path d="M113.37,95.06c2,7.84-1.66,12.88-10.53,12.92-4.16,0-8.32,0-12.48,0-4.45,0-6.75-2-6.72-6.66.09-12.8.13-25.61,0-38.42-.05-4.65,2.25-6.84,6.56-7,5.65-.18,11.31-.07,17,0,4.07,0,6.12,2.12,6.1,6.21a14.67,14.67,0,0,0,0,2c1.31,8.74-1.36,15.55-9.22,20.19a21.82,21.82,0,0,0-5.91,5.3,6.14,6.14,0,0,0-1,4.89c.35,1.09,2.58,2.29,3.91,2.22C105.11,96.48,109.15,95.67,113.37,95.06ZM96,75.51l1.93.57a56.63,56.63,0,0,0,2.93-7.87c.2-.87-1.36-2.13-2.12-3.22-.91,1-2.45,1.81-2.61,2.88A49.85,49.85,0,0,0,96,75.51Z" transform="translate(148.88 128.97)"/><path d="M258.75,64.91c3.91-1.84,4.21-5.55,4.17-9.77-.17-16.66-.09-33.33-.05-50a48.26,48.26,0,0,1,.5-5.08l1.24.1V59.82l7.28-5.18L273.26,58A27.56,27.56,0,0,1,277,56.24c4.16-1.24,8.35-1.81,11.31,2.32C290.77,62,289.9,70.13,287,72.85c-2.63,2.46-5.31,4.87-9.11,8.35,0-4.61.28-7.86-.11-11-.2-1.68-1.57-3.21-2.41-4.82-.88,1.52-2.49,3-2.52,4.54-.22,11-.15,22-.09,33a35.47,35.47,0,0,0,.74,4.91H260.1V94.33c0-7.33.08-14.66-.06-22C260,70.12,259.3,67.92,258.75,64.91Z" transform="translate(148.88 128.97)"/><path d="M167.41,41.37,181.73,30.3V55.17l6.36,1.56c-2.05,3.44-3.87,6.4-5.59,9.43a5,5,0,0,0-.5,2.33c0,11.83-.05,23.66,0,35.49a16.86,16.86,0,0,0,.94,3.82H169.05c0-21.44,0-42.72-.05-64C169,43.14,168.14,42.46,167.41,41.37Z" transform="translate(148.88 128.97)"/><path d="M15.11,41.86,10.9,30H54.81C48.4,40.36,36.38,43.86,15.11,41.86Z" transform="translate(148.88 128.97)"/><path d="M-41.42-22.44c2.09,4.85,4.72,8.76.68,12.87-.72.73-2.17.76-3.29,1.11-.31-1.17-1.12-2.46-.85-3.48C-44-15.21-42.8-18.38-41.42-22.44Z" transform="translate(148.88 128.97)"/><path d="M-143.52-40.36q2.9,7.74,5.78,15.47l-1.38.52c-.22-5.91-10.11-8.09-6.21-15.58Z" transform="translate(148.88 128.97)"/><path d="M-85.45-68.82a22.42,22.42,0,0,1,16-7.6c2.27-.11,4.72,3.46,7.41,5.62Z" transform="translate(148.88 128.97)"/></svg>