<?xml version="1.0" encoding="utf-8"?>
<!-- Generator: Adobe Illustrator 26.0.1, SVG Export Plug-In . SVG Version: 6.00 Build 0)  -->
<svg version="1.1" id="Layer_1" xmlns="http://www.w3.org/2000/svg" xmlns:xlink="http://www.w3.org/1999/xlink" x="0px" y="0px"
	 viewBox="0 0 831.3 159.4" style="enable-background:new 0 0 831.3 159.4;" xml:space="preserve">
<path d="M-0.2-0.2c0,21.4,0,42.4,0,63.9c10.7,0,20.9,0,31.7,0c0,10.8,0,21.2,0,32.1c10.9,0,21.3,0,32.1,0c0,10.8,0,21.1,0,31.9
	c10.8,0,21.2,0,31.9,0c0,10.8,0,21.1,0,31.5c74.8,0,149.1,0,224.1,0c0-10.7,0-21.1,0-31.8c10.8,0,21.1,0,31.9,0
	c0-10.8,0-21.2,0-32.1c10.9,0,21.3,0,32.1,0c0-21.5,0-42.4,0-63.4c21.4,0,42.5,0,64.1,0c0,21.4,0,42.4,0,63.9c10.8,0,21.1,0,31.9,0
	c0,10.8,0,21.2,0,31.9c10.8,0,21.1,0,31.7,0c0,10.6,0,20.9,0,31.5c75.1,0,149.5,0,224.2,0c0-10.6,0-20.9,0-31.7
	c10.8,0,21.2,0,32.1,0c0-10.9,0-21.3,0-32.1c10.8,0,21.1,0,31.9,0c0-10.8,0-21.2,0-32.1c10.9,0,21.3,0,31.6,0c0-21.5,0-42.4,0-63.4
	C553.8-0.2,276.8-0.2-0.2-0.2z M191.4,95.4c-10.6,0-21.2,0-31.8,0c0-10.6,0-21.2,0-31.9c10.4,0,20.8,0,31.8,0
	C191.4,74.3,191.4,84.9,191.4,95.4z M159.4,31.8c0,10.5,0,21,0,31.6c-10.6,0-21.2,0-31.8,0c0-10.4,0-20.8,0-31.6
	C138.1,31.8,148.4,31.8,159.4,31.8z M63.7,31.9c10.3,0,20.6,0,31.8,0c0,10.3,0,20.8,0,31.3c-10.5,0-21.1,0-31.8,0
	C63.7,52.8,63.7,42.5,63.7,31.9z M95.7,63.4c10.6,0.1,21.1,0.1,31.7,0.2c0,10.6,0,21.2,0,31.9c-10.4,0-20.8,0-31.7,0
	C95.7,84.6,95.7,74,95.7,63.4z M127.5,127.1c0-10.5,0-21,0-31.6c10.6,0,21.2,0,31.9,0c0,10.4,0,20.8,0,31.6
	C148.8,127.1,138.4,127.1,127.5,127.1z M223.1,127.2c-10.3,0-20.7,0-31.6,0c0-10.6,0-21.1,0-31.6c10.4,0,20.8,0,31.6,0
	C223.1,106.1,223.1,116.5,223.1,127.2z M643.4,95.4c-10.6,0-21.2,0-31.8,0c0-10.6,0-21.2,0-31.9c10.4,0,20.8,0,31.8,0
	C643.4,74.3,643.4,84.9,643.4,95.4z M611.4,31.8c0,10.5,0,21,0,31.6c-10.6,0-21.2,0-31.8,0c0-10.4,0-20.8,0-31.6
	C590.1,31.8,600.4,31.8,611.4,31.8z M515.8,31.8c10.3,0,20.7,0,31.6,0c0,10.5,0,21.1,0,31.6c-10.4,0-20.8,0-31.6,0
	C515.8,52.9,515.8,42.5,515.8,31.8z M547.5,63.5c10.6,0,21.3,0,31.9,0c0,10.6,0,21.2,0,31.9c-10.4,0-20.9,0-31.9,0
	C547.5,84.6,547.5,74.1,547.5,63.5z M579.5,127.1c0-10.5,0-21,0-31.6c10.6,0,21.2,0,31.9,0c0,10.4,0,20.8,0,31.6
	C600.8,127.1,590.4,127.1,579.5,127.1z M675.1,127.2c-10.3,0-20.7,0-31.6,0c0-10.6,0-21.1,0-31.6c10.4,0,20.8,0,31.6,0
	C675.1,106.1,675.1,116.5,675.1,127.2z"/>
</svg>
